<?xml version="1.0" standalone="no"?>
<!DOCTYPE svg PUBLIC "-//W3C//DTD SVG 20010904//EN"
 "http://www.w3.org/TR/2001/REC-SVG-20010904/DTD/svg10.dtd">
<svg version="1.0" xmlns="http://www.w3.org/2000/svg"
 width="70.000000pt" height="70.000000pt" viewBox="0 0 70.000000 70.000000"
 preserveAspectRatio="xMidYMid meet">
<metadata>
Created by potrace 1.14, written by Peter Selinger 2001-2017
</metadata>
<g transform="translate(0.000000,70.000000) scale(0.100000,-0.100000)"
fill="#000000" stroke="none">
<path d="M0 617 c0 -82 0 -83 31 -101 39 -23 47 -15 26 29 -19 40 -22 91 -7
100 6 3 10 -4 10 -17 0 -14 7 -33 15 -44 15 -19 15 -19 30 1 9 11 18 36 21 57
4 21 10 35 15 32 16 -10 9 -79 -11 -109 -11 -16 -20 -40 -20 -53 0 -28 22 -73
46 -93 16 -13 17 -11 11 36 -10 67 14 45 28 -27 7 -36 17 -55 35 -67 23 -15
24 -15 16 4 -14 36 -19 75 -9 75 4 0 17 -19 28 -42 25 -54 62 -74 109 -58 24
8 37 20 46 43 29 77 27 75 35 45 4 -14 2 -35 -5 -47 -8 -17 -8 -21 3 -21 21 0
34 20 42 65 9 50 23 77 36 70 6 -4 5 -13 -1 -25 -14 -26 -13 -63 2 -58 7 3 23
25 36 51 l24 46 -26 45 c-16 28 -26 59 -26 85 0 51 15 53 25 4 9 -49 22 -73
40 -73 16 0 31 43 21 59 -4 5 -2 12 3 16 6 3 15 -4 21 -15 8 -16 6 -30 -10
-66 -11 -26 -20 -50 -20 -55 0 -16 23 -9 47 13 19 18 23 19 23 5 0 -9 -12 -24
-26 -34 -15 -10 -55 -46 -90 -80 -58 -58 -61 -63 -38 -63 16 0 24 -5 22 -12
-3 -8 -32 -15 -74 -19 -48 -4 -56 -6 -27 -7 23 -1 45 -7 48 -13 8 -13 -23 -38
-48 -39 -25 0 -42 -20 -44 -50 -2 -40 -32 -133 -47 -148 -18 -19 -44 -9 -55
20 -14 36 -32 111 -34 137 -2 25 -10 31 -65 52 -44 16 -36 33 19 39 40 4 38 5
-25 10 -43 3 -71 10 -74 18 -2 7 6 12 23 12 26 0 26 1 -19 45 -25 24 -46 48
-46 53 0 5 -14 15 -30 22 -17 7 -37 22 -45 34 -13 18 -15 -9 -15 -242 l0 -262
350 0 350 0 0 350 0 350 -350 0 -350 0 0 -83z"/>
</g>
</svg>
